<?xml version="1.0" encoding="utf-8"?>
<!-- Generator: Adobe Illustrator 19.0.0, SVG Export Plug-In . SVG Version: 6.00 Build 0)  -->
<svg version="1.1" id="Layer_1" xmlns="http://www.w3.org/2000/svg" xmlns:xlink="http://www.w3.org/1999/xlink" x="0px" y="0px"
	 viewBox="0 0 14.9 9.1" style="enable-background:new 0 0 14.9 9.1;" xml:space="preserve">
<g id="XMLID_13_">
	<g id="XMLID_6_">
		<circle id="XMLID_1_" cx="0.9" cy="0.8" r="0.8"/>
		<path id="XMLID_5_" d="M14.1,1.5H4.2c-0.4,0-0.8-0.3-0.8-0.8v0C3.4,0.3,3.8,0,4.2,0l9.9,0c0.4,0,0.8,0.3,0.8,0.8v0
			C14.9,1.2,14.5,1.5,14.1,1.5z"/>
	</g>
	<g id="XMLID_7_">
		<circle id="XMLID_9_" cx="0.8" cy="4.5" r="0.8"/>
		<path id="XMLID_8_" d="M14.1,5.2H4.2c-0.4,0-0.8-0.3-0.8-0.8v0c0-0.4,0.3-0.8,0.8-0.8l9.9,0c0.4,0,0.8,0.3,0.8,0.8v0
			C14.8,4.8,14.5,5.2,14.1,5.2z"/>
	</g>
	<g id="XMLID_10_">
		<circle id="XMLID_12_" cx="0.8" cy="8.2" r="0.8"/>
		<path id="XMLID_11_" d="M14.1,8.9H4.2c-0.4,0-0.8-0.3-0.8-0.8v0c0-0.4,0.3-0.8,0.8-0.8h9.9c0.4,0,0.8,0.3,0.8,0.8v0
			C14.8,8.6,14.5,8.9,14.1,8.9z"/>
	</g>
</g>
</svg>
